<svg width="312" height="290" viewBox="0 0 312 290" fill="none" xmlns="http://www.w3.org/2000/svg">
<path fill-rule="evenodd" clip-rule="evenodd" d="M109.186 56.7616C127.966 51.3098 146.102 48.1433 165.676 47.3608C193.559 46.246 226.215 32.5336 247.332 51.2388C268.136 69.6664 266.073 104.393 260.806 131.627C256.299 154.933 235.658 169.571 220.897 187.939C208.613 203.225 197.344 217.998 181.825 229.905C160.888 245.97 141.291 273.956 115.272 268.984C89.4578 264.052 83.3644 229.027 67.1692 207.997C52.1183 188.453 27.4814 174.648 23.8347 150.249C20.1243 125.423 31.5327 99.7637 48.2551 81.4473C63.4424 64.8122 87.6086 63.0254 109.186 56.7616Z" fill="#CAE0F6"/>
<path d="M117.008 128.64C118.544 128.64 119.888 128.128 121.04 127.104C122.224 126.08 123.2 124.72 123.968 123.024C124.768 121.328 125.376 119.36 125.792 117.12C126.208 114.88 126.416 112.544 126.416 110.112C126.416 107.392 125.936 105.328 124.976 103.92C124.048 102.48 122.64 101.76 120.752 101.76C119.216 101.76 117.856 102.272 116.672 103.296C115.52 104.32 114.544 105.68 113.744 107.376C112.976 109.072 112.384 111.04 111.968 113.28C111.552 115.52 111.344 117.856 111.344 120.288C111.344 123.008 111.808 125.088 112.736 126.528C113.696 127.936 115.12 128.64 117.008 128.64ZM116.528 132.576C113.328 132.576 110.88 131.456 109.184 129.216C107.52 126.944 106.688 123.872 106.688 120C106.688 117.312 106.976 114.64 107.552 111.984C108.128 109.328 109.008 106.96 110.192 104.88C111.376 102.768 112.88 101.072 114.704 99.792C116.56 98.48 118.736 97.824 121.232 97.824C124.432 97.824 126.864 98.96 128.528 101.232C130.224 103.472 131.072 106.528 131.072 110.4C131.072 113.088 130.784 115.76 130.208 118.416C129.632 121.072 128.752 123.456 127.568 125.568C126.384 127.648 124.864 129.344 123.008 130.656C121.184 131.936 119.024 132.576 116.528 132.576ZM144.973 128.16L149.245 104.016L142.093 109.008L140.125 105.552L151.357 98.4H154.525L149.293 128.16H155.005L154.333 132H137.437L138.109 128.16H144.973Z" fill="black"/>
</svg>
