<svg width="326" height="325" viewBox="0 0 326 325" fill="none" xmlns="http://www.w3.org/2000/svg">
<path fill-rule="evenodd" clip-rule="evenodd" d="M100.018 239.436C87.6015 224.328 77.5391 208.91 69.1008 191.232C57.0797 166.048 31.5998 141.447 40.4609 114.665C49.1905 88.2799 81.9161 76.4803 109.02 70.5795C132.214 65.5298 153.806 78.7248 176.507 85.0458C195.398 90.306 213.418 94.8349 230.48 104.4C253.501 117.304 286.946 124.276 292.639 150.147C298.287 175.814 268.505 195.227 255.566 218.403C243.542 239.942 240.572 268.026 219.589 281C198.238 294.2 170.159 293.836 146.733 285.693C125.456 278.297 114.284 256.794 100.018 239.436Z" fill="#FEDAA7"/>
<path d="M139.008 158.64C140.544 158.64 141.888 158.128 143.04 157.104C144.224 156.08 145.2 154.72 145.968 153.024C146.768 151.328 147.376 149.36 147.792 147.12C148.208 144.88 148.416 142.544 148.416 140.112C148.416 137.392 147.936 135.328 146.976 133.92C146.048 132.48 144.64 131.76 142.752 131.76C141.216 131.76 139.856 132.272 138.672 133.296C137.52 134.32 136.544 135.68 135.744 137.376C134.976 139.072 134.384 141.04 133.968 143.28C133.552 145.52 133.344 147.856 133.344 150.288C133.344 153.008 133.808 155.088 134.736 156.528C135.696 157.936 137.12 158.64 139.008 158.64ZM138.528 162.576C135.328 162.576 132.88 161.456 131.184 159.216C129.52 156.944 128.688 153.872 128.688 150C128.688 147.312 128.976 144.64 129.552 141.984C130.128 139.328 131.008 136.96 132.192 134.88C133.376 132.768 134.88 131.072 136.704 129.792C138.56 128.48 140.736 127.824 143.232 127.824C146.432 127.824 148.864 128.96 150.528 131.232C152.224 133.472 153.072 136.528 153.072 140.4C153.072 143.088 152.784 145.76 152.208 148.416C151.632 151.072 150.752 153.456 149.568 155.568C148.384 157.648 146.864 159.344 145.008 160.656C143.184 161.936 141.024 162.576 138.528 162.576ZM180.653 135.936C180.653 137.632 180.237 139.136 179.405 140.448C178.605 141.728 177.581 142.928 176.333 144.048C175.117 145.136 173.773 146.192 172.301 147.216C170.829 148.208 169.421 149.248 168.077 150.336C166.733 151.392 165.549 152.544 164.525 153.792C163.501 155.04 162.845 156.464 162.557 158.064H177.821L177.149 162H157.853C157.789 161.744 157.741 161.456 157.709 161.136C157.709 160.816 157.709 160.512 157.709 160.224C157.709 158.016 158.157 156.064 159.053 154.368C159.949 152.64 161.069 151.104 162.413 149.76C163.789 148.384 165.261 147.152 166.829 146.064C168.429 144.944 169.901 143.872 171.245 142.848C172.621 141.792 173.757 140.752 174.653 139.728C175.549 138.672 175.997 137.52 175.997 136.272C175.997 134.832 175.517 133.712 174.557 132.912C173.629 132.08 172.445 131.664 171.005 131.664C169.629 131.664 168.381 131.92 167.261 132.432C166.173 132.944 165.085 133.664 163.997 134.592L161.981 131.328C163.293 130.272 164.701 129.424 166.205 128.784C167.741 128.144 169.517 127.824 171.533 127.824C172.877 127.824 174.109 128.032 175.229 128.448C176.349 128.832 177.309 129.392 178.109 130.128C178.909 130.832 179.533 131.68 179.981 132.672C180.429 133.664 180.653 134.752 180.653 135.936Z" fill="black"/>
</svg>
