<svg width="252" height="212" viewBox="0 0 252 212" fill="none" xmlns="http://www.w3.org/2000/svg">
<path fill-rule="evenodd" clip-rule="evenodd" d="M133.898 204.7C114.49 202.302 96.5757 198.058 78.2809 191.056C52.2186 181.082 16.8013 180.801 4.77521 155.283C-7.07248 130.143 8.52139 99.0461 24.1036 76.0977C37.438 56.4597 62.1793 51.1504 82.9892 40.0944C100.307 30.8938 116.489 21.7635 135.446 16.943C161.023 10.4394 190.07 -7.54684 212.018 7.28513C233.794 22.0002 225.577 56.5881 232.164 82.3013C238.285 106.198 255.479 128.602 249.205 152.461C242.822 176.737 222.217 195.816 199.626 206.051C179.108 215.346 156.197 207.456 133.898 204.7Z" fill="#C2F4DA"/>
<path d="M110.008 97.64C111.544 97.64 112.888 97.128 114.04 96.104C115.224 95.08 116.2 93.72 116.968 92.024C117.768 90.328 118.376 88.36 118.792 86.12C119.208 83.88 119.416 81.544 119.416 79.112C119.416 76.392 118.936 74.328 117.976 72.92C117.048 71.48 115.64 70.76 113.752 70.76C112.216 70.76 110.856 71.272 109.672 72.296C108.52 73.32 107.544 74.68 106.744 76.376C105.976 78.072 105.384 80.04 104.968 82.28C104.552 84.52 104.344 86.856 104.344 89.288C104.344 92.008 104.808 94.088 105.736 95.528C106.696 96.936 108.12 97.64 110.008 97.64ZM109.528 101.576C106.328 101.576 103.88 100.456 102.184 98.216C100.52 95.944 99.688 92.872 99.688 89C99.688 86.312 99.976 83.64 100.552 80.984C101.128 78.328 102.008 75.96 103.192 73.88C104.376 71.768 105.88 70.072 107.704 68.792C109.56 67.48 111.736 66.824 114.232 66.824C117.432 66.824 119.864 67.96 121.528 70.232C123.224 72.472 124.072 75.528 124.072 79.4C124.072 82.088 123.784 84.76 123.208 87.416C122.632 90.072 121.752 92.456 120.568 94.568C119.384 96.648 117.864 98.344 116.008 99.656C114.184 100.936 112.024 101.576 109.528 101.576ZM133.509 85.256L134.085 81.752H135.621C137.189 81.752 138.613 81.608 139.893 81.32C141.173 81.032 142.261 80.616 143.157 80.072C144.053 79.528 144.741 78.872 145.221 78.104C145.733 77.304 145.989 76.408 145.989 75.416C145.989 73.944 145.477 72.776 144.453 71.912C143.461 71.016 142.181 70.568 140.613 70.568C139.141 70.568 137.877 70.808 136.821 71.288C135.765 71.736 134.821 72.264 133.989 72.872L132.309 69.608C133.429 68.808 134.709 68.152 136.149 67.64C137.589 67.096 139.253 66.824 141.141 66.824C142.613 66.824 143.925 67.048 145.077 67.496C146.229 67.912 147.205 68.488 148.005 69.224C148.805 69.928 149.413 70.76 149.829 71.72C150.245 72.68 150.453 73.672 150.453 74.696C150.453 76.968 149.797 78.792 148.485 80.168C147.173 81.544 145.253 82.616 142.725 83.384C144.741 84.12 146.293 85.176 147.381 86.552C148.469 87.896 149.013 89.512 149.013 91.4C149.013 92.936 148.709 94.344 148.101 95.624C147.493 96.872 146.645 97.944 145.557 98.84C144.469 99.704 143.173 100.376 141.669 100.856C140.165 101.336 138.533 101.576 136.773 101.576C134.949 101.576 133.221 101.336 131.589 100.856C129.989 100.344 128.629 99.656 127.509 98.792L130.053 95.384C130.853 96.056 131.813 96.616 132.933 97.064C134.053 97.512 135.333 97.736 136.773 97.736C137.861 97.736 138.869 97.608 139.797 97.352C140.725 97.064 141.525 96.664 142.197 96.152C142.869 95.64 143.397 95 143.781 94.232C144.165 93.464 144.357 92.584 144.357 91.592C144.357 90.728 144.181 89.912 143.829 89.144C143.477 88.376 142.949 87.704 142.245 87.128C141.573 86.552 140.709 86.104 139.653 85.784C138.597 85.432 137.365 85.256 135.957 85.256H133.509Z" fill="black"/>
</svg>
